<svg width="180" height="231" viewBox="0 0 180 231" xmlns="http://www.w3.org/2000/svg">
  <g id="Page-1" fill="none" fill-rule="evenodd">
    <g id="Group-2" transform="translate(-12 -3)">
      <path d="M78.65 182.4H66.2m0-12.45V157.5m0-12.45V132.6m0-12.45V107.7m0-12.45V82.8m12.45 0H91.1m12.45 0H116m12.45 0h12.45m12.45 0h12.45m0 12.45v12.45m0 12.45v12.45m0 12.45v12.45m0 12.45v12.45m-12.45 0H140.9m-12.45 0H116m-12.45 0H91.1" id="snipped-rect" stroke="#336CF8" stroke-width="2" stroke-linecap="round"/>
      <path d="M109.524 36.897c16.121-25.344 6.4 4.98 23.752-15.794" id="Path-2" stroke="#336CF8" stroke-width="1.75" stroke-linecap="round"/>
      <path d="M92.62 132.216a54.783 54.783 0 0 0 9.192-5.711m7.892-7.404a55.47 55.47 0 0 0 6.3-8.801m4.473-9.857a55.063 55.063 0 0 0 2.465-10.537m.35-10.815a55.47 55.47 0 0 0-1.773-10.678m-3.803-10.133a54.783 54.783 0 0 0-5.711-9.192m-7.404-7.892a55.47 55.47 0 0 0-8.801-6.3m-9.857-4.473a55.063 55.063 0 0 0-10.537-2.465m-10.815-.35a55.47 55.47 0 0 0-10.678 1.773M43.78 33.184a54.782 54.782 0 0 0-9.192 5.711m-7.892 7.404a55.47 55.47 0 0 0-6.3 8.801m-4.473 9.857a55.063 55.063 0 0 0-2.465 10.537m-.35 10.815a55.47 55.47 0 0 0 1.773 10.678m3.803 10.133a54.783 54.783 0 0 0 5.711 9.192m7.404 7.892a55.47 55.47 0 0 0 8.801 6.3m9.857 4.473a55.063 55.063 0 0 0 10.537 2.465m10.815.35a55.47 55.47 0 0 0 10.678-1.773" id="snipped-oval" stroke="#336CF8" stroke-width="2" stroke-linecap="round"/>
      <text id="FIG.-1" font-family="Montserrat-SemiBold, Montserrat" font-size="14.4" font-weight="500" letter-spacing=".384" fill="#336CF8">
        <tspan x="117.4" y="14">FIG. 1</tspan>
      </text>
      <path d="M144.463 188.823c1.29 30.01 8.033-1.113 12.674 25.554" id="Path-2-Copy" stroke="#336CF8" stroke-width="1.75" stroke-linecap="round"/>
      <text id="FIG.-2" font-family="Montserrat-SemiBold, Montserrat" font-size="14.4" font-weight="500" letter-spacing=".384" fill="#336CF8">
        <tspan x="149" y="232.4">FIG. 2</tspan>
      </text>
    </g>
  </g>
</svg>
