<svg width="183" height="176" viewBox="0 0 183 176" xmlns="http://www.w3.org/2000/svg" xmlns:xlink="http://www.w3.org/1999/xlink">
  <title>
    Group 2
  </title>
  <g id="Page-1" fill="none" fill-rule="evenodd">
    <g id="Group-2" transform="translate(1 1)" stroke="#336CF8" stroke-width="2">
      <!-- <path d="M.033 94.439v22.21a2 2 0 0 0 .662 1.486l60.429 54.395a2 2 0 0 0 2.6.066L179.42 78.567a2 2 0 0 0 .738-1.552V55.479a2 2 0 0 0-.68-1.502L119.626 1.385a2 2 0 0 0-2.557-.07L.796 92.868a2 2 0 0 0-.763 1.572z" id="Path-7"/> -->
      <path d="M.368 93.5l60.865 54.194a2 2 0 0 0 2.587.062l115.914-93.625" id="Path-8"/>
      <path d="M65.5 118c15.77 0 28.501-10.969 28.501-24.5S81.485 69 65.5 69C49.515 69 37 79.969 37 93.5S49.73 118 65.5 118z" id="Oval-3"/>
      <path d="M40.398 104.958c4.586-7.379 13.548-12.86 25.077-12.86 11.581 0 20.611 5.543 25.204 12.972" id="Path-9"/>
      <path d="M85.61 52.241l29.382 27.746a1 1 0 0 0 1.334.034l31.27-26.619a1 1 0 0 0 .01-1.514l-29.987-26.234a1 1 0 0 0-1.292-.021L85.663 50.74a1 1 0 0 0-.053 1.5z" id="Path-10"/>
      <path d="M135.127 64.063L117.265 48.56a1 1 0 0 0-1.286-.02L97.625 63.469" id="Path-10"/>
    </g>
  </g>
</svg>
