<svg width="183" height="192" viewBox="0 0 183 192" xmlns="http://www.w3.org/2000/svg">
  <g id="Page-1" fill="none" fill-rule="evenodd">
    <g id="executed" transform="translate(1 1)">
      <g id="holder" transform="translate(0 16)" stroke="#336CF8" stroke-width="2">
        <path d="M.368 93.5l60.865 54.194a2 2 0 0 0 2.587.062l115.914-93.625" id="holder-under"/>
        <path d="M.033 94.439v22.21a2 2 0 0 0 .662 1.486l60.429 54.395a2 2 0 0 0 2.6.066L179.42 78.567a2 2 0 0 0 .738-1.552V55.479a2 2 0 0 0-.68-1.502L119.626 1.385a2 2 0 0 0-2.557-.07L.796 92.868a2 2 0 0 0-.763 1.572z" id="holder-outer"/>
      </g>
      <g id="hole-oval" transform="translate(37 85)" stroke="#336CF8" stroke-width="2">
        <path d="M3.398 35.958c4.586-7.379 13.548-12.86 25.077-12.86 11.581 0 20.611 5.543 25.204 12.972" id="hole-oval-under"/>
        <path d="M28.5 49c15.77 0 28.501-10.969 28.501-24.5S44.485 0 28.5 0C12.515 0 0 10.969 0 24.5S12.73 49 28.5 49z"/>
      </g>
      <g id="hole-rect" transform="translate(84 41)" stroke="#336CF8" stroke-width="2">
        <path d="M51.127 39.063L33.265 23.56a1 1 0 0 0-1.286-.02L13.625 38.469" id="hole-rect-under"/>
        <path d="M1.61 27.241l29.382 27.746a1 1 0 0 0 1.334.034l31.27-26.619a1 1 0 0 0 .01-1.514L33.619.654a1 1 0 0 0-1.292-.021L1.663 25.74a1 1 0 0 0-.053 1.5z"/>
      </g>
      <g id="cube" transform="translate(85 4)">
        <path d="M.5 28.922v13.763a2 2 0 0 0 .627 1.454L30.194 71.58a1 1 0 0 0 1.335.035l30.913-26.317a2 2 0 0 0 .704-1.523V27.231a1 1 0 0 0-.338-.75L32.822.247a1 1 0 0 0-1.292-.02L.867 25.267a1 1 0 0 0-.367.775v2.879z" id="cube-fill" fill="#FFF"/>
        <path d="M.827 27.145L30.208 54.89a1 1 0 0 0 1.335.035l31.27-26.62a1 1 0 0 0 .01-1.514L32.836.557a1 1 0 0 0-1.292-.02L.88 25.643a1 1 0 0 0-.053 1.5z" id="cube-top" stroke="#336CF8" stroke-width="2"/>
        <path d="M63.16 27.556v16.53a2 2 0 0 1-.703 1.522L31.543 71.925a1 1 0 0 1-1.335-.035L1.142 44.45a2 2 0 0 1-.628-1.455V26.232" id="cube-under" stroke="#336CF8" stroke-width="2"/>
      </g>
      <g id="cylinder" transform="translate(37)">
        <path d="M57.001 24.5C57.001 10.969 44.485 0 28.5 0 12.515 0 0 10.969 0 24.5v17.236c0 13.53 12.73 24.5 28.5 24.5s28.501-10.97 28.501-24.5V24.5z" id="cylinder-fill" fill="#FFF"/>
        <path d="M28.5 49c15.77 0 28.501-10.969 28.501-24.5S44.485 0 28.5 0C12.515 0 0 10.969 0 24.5S12.73 49 28.5 49z" id="cylinder-top" stroke="#336CF8" stroke-width="2"/>
        <path d="M0 24.5C0 10.969 12.515 0 28.5 0s28.501 10.969 28.501 24.5v17.236c0 13.53-12.73 24.5-28.501 24.5-15.77 0-28.5-10.97-28.5-24.5V24.5z" id="cylinder-top" stroke="#336CF8" stroke-width="2"/>
      </g>
    </g>
  </g>
</svg>
