<?xml version="1.0" encoding="UTF-8"?>
<svg width="153px" height="155px" viewBox="0 0 153 155" version="1.1" xmlns="http://www.w3.org/2000/svg" xmlns:xlink="http://www.w3.org/1999/xlink">
    <!-- Generator: Sketch 48.2 (47327) - http://www.bohemiancoding.com/sketch -->
    <title>made</title>
    <desc>Created with Sketch.</desc>
    <defs></defs>
    <g id="Page-1" stroke="none" stroke-width="1" fill="none" fill-rule="evenodd">
        <g id="made">
            <rect id="rect-fill" fill="#FFFFFF" x="53.2713178" y="55.2713178" width="99.7286822" height="99.7286822" rx="2"></rect>
            <rect id="rect-stroke" stroke="#336CF8" stroke-width="2" x="54.2713178" y="56.2713178" width="97.7286822" height="97.7286822" rx="2"></rect>
            <path d="M73.8530906,68.8559484 C68.3048893,74.0020013 65.5307886,77.7585081 65.5307886,80.1254689 C65.5307886,82.4924296 73.0560949,79.5639119 88.1067074,71.3399157 C110.217712,56.3679201 61.4501252,93.375903 65.5307886,100.710426 C69.6114521,108.044948 105.184706,64.1663701 110.325779,67.4641665 C118.978569,73.0145913 82.6301756,100.065399 73.8530906,112.273953 C68.0071755,120.405374 64.6763042,132.807404 68.2290921,128.824419 C86.1040866,108.784996 124.117859,68.8559484 128.188391,68.8559484 C141.044262,68.8559484 116.319007,91.0627111 110.325779,97.0090685 C61.2643846,145.686779 69.386312,143.930563 76.2001757,139.988858 C89.417148,132.343062 135.154224,76.4031181 139.548958,85.9687169 C143.943692,95.5343157 84.8554864,132.229643 94.6988081,139.988858 C102.220737,145.918184 129.480211,107.839251 135.517825,107.200936 C138.604152,106.874641 124.585024,127.880914 110.325779,139.988858 C114.617699,140.643945 121.36327,137.443033 130.562493,130.386122 C139.761715,123.32921 140.314059,126.530122 132.219524,139.988858" id="rect-marker" stroke-opacity="0.150305707" stroke="#336CF8" stroke-width="9" stroke-linecap="round"></path>
            <circle id="oval-fill" fill="#FFFFFF" cx="55.2713178" cy="55.2713178" r="55.2713178"></circle>
            <circle id="oval-stroke" stroke="#336CF8" stroke-width="2" cx="55.2713178" cy="55.2713178" r="54.2713178"></circle>
            <path d="M37.9189718,17.576808 C22.5491113,23.9343045 15.7016029,39.6133503 14.8530489,42.8052632 C12.7898808,50.5660577 55.0023584,11.8187618 62.709149,14.5575536 C67.1867681,16.1487823 53.2566725,29.0084324 29.4869471,44.1912518 C25.4701049,46.7569941 7.82491866,63.9116076 14.8530489,64.3492882 C27.8938624,65.1614119 73.0272543,9.79843213 74.8853043,20.9719238 C76.1902458,28.8192654 35.6749978,57.9697824 23.9975345,75.0650451 C18.3584557,83.3203941 24.3760294,82.567435 33.4240359,75.0650451 C46.3519168,64.3455565 53.11748,56.7350519 64.0549085,44.1912518 C67.1015268,40.6971791 80.1458883,23.0861438 83.7737492,27.2552372 C87.7419519,31.815447 75.9405094,41.4131574 71.7880783,45.7033518 C60.5496099,57.3146734 35.6925313,84.7508926 39.2387562,92.334884 C41.0004171,96.1023893 45.8172994,93.2588619 47.7548908,90.822784 C53.2717667,83.8865745 57.2334832,75.8086023 62.709149,68.8398419 C70.6707678,58.7072634 92.7252767,24.4438706 92.7252767,37.3280734 C92.7252767,48.8079169 74.8308802,65.1133747 62.709149,80.2442658 C59.5456989,84.1930268 55.2993072,89.443678 56.7719745,94.3143378 C58.7951274,101.005659 69.6807569,87.1644908 71.7880783,84.7508926 C83.7499863,71.0504486 94.1613307,53.9748562 98.7465611,55.6538683 C101.436214,56.6387608 97.8715822,65.5209036 96.7266849,68.1796118 C91.9694379,79.2270059 82.5615761,91.483014 74.8853043,94.3143378" id="oval-marker" stroke-opacity="0.150305707" stroke="#336CF8" stroke-width="9" stroke-linecap="round"></path>
        </g>
    </g>
</svg>