<?xml version="1.0" standalone="no"?>
<!DOCTYPE svg PUBLIC "-//W3C//DTD SVG 20010904//EN"
 "http://www.w3.org/TR/2001/REC-SVG-20010904/DTD/svg10.dtd">
<svg version="1.0" xmlns="http://www.w3.org/2000/svg"
 width="700.000000pt" height="700.000000pt" viewBox="0 0 700.000000 700.000000"
 preserveAspectRatio="xMidYMid meet">
<metadata>
Created by potrace 1.11, written by Peter Selinger 2001-2013
</metadata>
<g transform="translate(0.000000,700.000000) scale(0.100000,-0.100000)"
fill="#000000" stroke="none">
<path d="M229 6190 c0 -7 0 -5293 0 -5345 l1 -40 835 0 c828 0 835 0 836 20 0
11 1 543 1 1183 0 1160 0 1163 20 1135 19 -27 280 -442 590 -938 83 -132 165
-262 183 -290 39 -60 276 -437 290 -462 6 -10 17 -29 26 -43 9 -14 29 -46 45
-72 l29 -47 406 -1 406 0 589 979 c324 539 590 978 592 976 4 -3 9 -661 14
-1832 2 -332 5 -604 8 -604 3 -1 380 -2 838 -3 l834 -1 -7 2330 c-8 3085 -8
3028 -12 3045 -4 13 -94 15 -753 15 -483 0 -753 -4 -759 -10 -7 -8 -500 -825
-552 -915 -8 -14 -17 -27 -20 -30 -3 -3 -8 -10 -10 -15 -4 -12 -176 -297 -519
-865 -264 -438 -382 -635 -395 -660 -5 -11 -13 -20 -17 -20 -5 0 -8 -4 -8 -10
0 -5 -43 -80 -95 -166 -52 -85 -95 -160 -95 -166 0 -17 -24 -3 -40 25 -8 14
-49 80 -90 147 -41 67 -82 133 -91 148 -9 15 -92 149 -184 297 -92 149 -175
282 -184 297 -9 14 -43 70 -76 123 -33 53 -67 108 -76 123 -9 15 -238 385
-509 822 -271 437 -502 812 -513 833 -11 20 -23 38 -26 38 -19 4 -1511 3
-1512 -1z"/>
</g>
</svg>
